<svg width="24" height="24" viewBox="0 0 24 24" fill="none" xmlns="http://www.w3.org/2000/svg">
<path fill-rule="evenodd" clip-rule="evenodd" d="M18.7074 5.29279C18.8949 5.48031 19.0002 5.73462 19.0002 5.99979C19.0002 6.26495 18.8949 6.51926 18.7074 6.70679L6.70741 18.7068C6.5188 18.8889 6.2662 18.9897 6.00401 18.9875C5.74181 18.9852 5.491 18.88 5.30559 18.6946C5.12018 18.5092 5.01501 18.2584 5.01273 17.9962C5.01045 17.734 5.11125 17.4814 5.29341 17.2928L17.2934 5.29279C17.4809 5.10532 17.7352 5 18.0004 5C18.2656 5 18.5199 5.10532 18.7074 5.29279Z" fill="white"/>
<path fill-rule="evenodd" clip-rule="evenodd" d="M8 6C8 5.73478 8.10536 5.48043 8.29289 5.29289C8.48043 5.10536 8.73478 5 9 5H18C18.2652 5 18.5196 5.10536 18.7071 5.29289C18.8946 5.48043 19 5.73478 19 6V15C19 15.2652 18.8946 15.5196 18.7071 15.7071C18.5196 15.8946 18.2652 16 18 16C17.7348 16 17.4804 15.8946 17.2929 15.7071C17.1054 15.5196 17 15.2652 17 15V7H9C8.73478 7 8.48043 6.89464 8.29289 6.70711C8.10536 6.51957 8 6.26522 8 6Z" fill="white"/>
</svg>
